<svg data-v-0dd9719b="" version="1.0" xmlns="http://www.w3.org/2000/svg" xmlns:xlink="http://www.w3.org/1999/xlink" width="100%" height="100%" viewBox="0 0 340.000000 250.000000" preserveAspectRatio="xMidYMid meet" color-interpolation-filters="sRGB" style="margin: auto;"> <rect data-v-0dd9719b="" x="0" y="0" width="100%" height="100%" fill="#ffffff" fill-opacity="1" class="background"></rect> <rect data-v-0dd9719b="" x="0" y="0" width="100%" height="100%" fill="url(#watermark)" fill-opacity="1" class="watermarklayer"></rect> <g data-v-0dd9719b="" class="iconmbgsvg" transform="translate(59.26499938964844,88.5225601196289)"><g fill="#333" hollow-target="textRect"><g mask="url(#36611e87-9fbf-4b63-a5c8-b184f9c9e72d)"><g><rect fill="#333" fill-opacity="0" stroke-width="2" x="0" y="0" width="147.5" height="70.5316412115184" class="image-rect"></rect> <svg x="0" y="0" width="147.5" height="70.5316412115184" filtersec="colorsb2066375019" class="image-svg-svg primary" style="overflow: visible;"><svg xmlns="http://www.w3.org/2000/svg" viewBox="-0.013117790222167969 0.00208282470703125 200.77313232421875 96.00579071044922"><g><g><path d="M53.72 83.56l.79-1c-1.49-1-2.94-2-4.45-2.92a53.38 53.38 0 0 1-15.33-13.38C27 55.85 26.9 44.49 34.45 34A51 51 0 0 1 49.2 20.67c14-8.81 29.57-13.41 45.72-16.29 12.87-2.29 25.87-3.07 38.86-3.55C99.52-1.69 66.15.75 35.85 19.36a43.65 43.65 0 0 0-13.06 12.19c-6.31 9-7.34 18.54-1.59 28.09 7.51 12.46 19.69 18.72 32.52 23.92z" fill="#fdfdfd"></path><path d="M200.76 18.57c-1.47-.66-2.92-1.41-4.42-2-29.7-11.2-60.31-13-91.43-8.48-17.58 2.57-34.49 7.38-49.55 17.28-6.75 4.44-12.65 9.78-16.12 17.31-3.86 8.36-3 17.54 2.56 23.74-3.21-18.29 7.1-28.75 20.59-37.38a62.4 62.4 0 0 1 7-3.89c30.65-14.4 63-16.87 96.12-13.4 11.88 1.25 23.49 4.09 35.25 6.82z" fill="#fdfdfd"></path><path d="M22.11 24.4c-7.18 3.29-13.37 7.77-17.79 14.37-6 8.9-5.74 18.25.6 26.9 4.51 6.17 10.48 10.67 17.14 14.21C46.91 93 73.8 96.19 101.35 96c-14.47-1.71-28.95-3.47-43-7.69-14.9-4.51-29.23-10.2-40.25-21.82C7.39 55.18 7.38 42 17.72 30.33c1.61-1.81 3.95-3.02 4.39-5.93z" fill="#fdfdfd"></path><path d="M53.72 83.56c-12.83-5.2-25-11.46-32.52-23.92-5.75-9.55-4.72-19.08 1.59-28.09a43.65 43.65 0 0 1 13.06-12.19C66.15.75 99.52-1.69 133.78.83c-13 .48-26 1.26-38.86 3.55-16.15 2.88-31.7 7.48-45.72 16.29A51 51 0 0 0 34.45 34c-7.55 10.54-7.5 21.9.28 32.31a53.38 53.38 0 0 0 15.33 13.32c1.51.92 3 1.94 4.45 2.92z" fill="#2c5da8"></path><path d="M200.76 18.57c-11.76-2.73-23.37-5.57-35.29-6.8-33.14-3.47-65.47-1-96.12 13.4a62.4 62.4 0 0 0-7 3.89C48.9 37.69 38.59 48.15 41.8 66.44c-5.53-6.2-6.42-15.38-2.56-23.74 3.47-7.53 9.37-12.87 16.12-17.31 15.06-9.9 32-14.71 49.55-17.28 31.12-4.57 61.73-2.72 91.43 8.48 1.5.57 2.95 1.32 4.42 1.98z" fill="#2c5da8"></path><path d="M22.11 24.4c-.44 2.91-2.78 4.12-4.39 5.93C7.38 42 7.39 55.18 18.1 66.49c11 11.62 25.35 17.31 40.27 21.8 14 4.22 28.51 6 43 7.69-27.57.21-54.46-2.98-79.31-16.1-6.66-3.54-12.63-8-17.14-14.21-6.34-8.65-6.57-18-.6-26.9 4.42-6.6 10.61-11.08 17.79-14.37z" fill="#2c5da8"></path></g></g></svg></svg> <!----></g><rect v-gra="id" width="159.5" height="82.5316390991211" transform="translate(-6, -6)" style="pointer-events:none;" fill="url(#8ph4UB2UgOK6E_ha7CiXX)"></rect></g> <g transform="translate(54.029998779296875,23.57675552368164)"><g data-gra="path-name" fill-rule="" class="tp-name" transform="translate(0,0)" fill="url(#ee6abfaa-b5ab-40ca-a0f7-5f6adf979506)"><g transform="scale(1)"><g><path d="M24.43 0.37L29.58-31.69 42.64-31.69 38.41-1.52Q38.27-0.69 37.63-0.16 36.98 0.37 36.16 0.37L36.16 0.37 31 0.37 33.03-1.93 34.32-11.18 31.46-11.18 29.62 0.37 24.43 0.37ZM13.39-26.73L17.11-26.73 17.71-30.87 16.24-32.61 24.33-32.61 23.46-26.73 27.46-26.73 26.86-22.68 22.91-22.68 22.26-18.22 25.9-18.22 23.6-2.07 10.03-2.07 12.33-18.22 15.92-18.22 16.56-22.68 12.79-22.68 13.39-26.73ZM6.26 0.41L-0.28 0.41 3.73-12.6 10.26-12.6 6.26 0.41ZM10.58-14.35L4-14.35 3.68-22.22 10.21-22.22 10.58-14.35ZM11.91-23.97L5.34-23.97 5.01-31.83 11.55-31.83 11.91-23.97ZM16.15-5.93L18.45-5.93 19.6-14.21 17.3-14.21 16.15-5.93ZM32.84-19.6L32.02-14.67 34.78-14.67 35.47-19.6 32.84-19.6ZM34.18-27.92L33.4-23.09 35.97-23.09 36.66-27.92 34.18-27.92ZM50.88-32.66L60.12-32.66 51.61 0.37 44.25 0.37 52.53-31.05 50.88-32.66ZM75.44-32.66L83.72-32.66 79.03 0.37 72.5 0.37 76.91-30.91 75.44-32.66ZM63.07-31L71.53-31 67.39-1.24 60.44-1.24 64.35-29.21 63.07-31ZM62.51-24.84L60.81-12.24 56.99-12.24 58.7-24.84 62.51-24.84ZM74.84-24.84L73.6-12.24 69.83-12.24 71.16-24.84 74.84-24.84ZM43.24-12.19L46.55-24.84 50.14-24.84 46.92-12.19 43.24-12.19ZM106.31-14.03L104.97-4.74 110.12-5.38 109.43-0.55 96.65 0.46 100.97-30.08 109.94-30.08 110.08-30.96 108.61-32.71 117.85-32.71 117.48-30.08 126.55-30.08 124.29-14.03 106.31-14.03ZM108.05-12.42L115.69-12.42 116.98-10.17 125.03-12.65 124.43-8.23 119.09-6.53 123.1 0.28 115.41 0.28 108.05-12.42ZM92.55 0.37L85.01 0.37 89.33-12.65 96.83-12.65 92.55 0.37ZM97.2-14.4L89.7-14.4 89.1-22.26 96.65-22.26 97.2-14.4ZM98.53-23.97L91.03-23.97 90.44-31.83 97.98-31.83 98.53-23.97ZM107.59-24.06L118.86-24.06 119.19-26.36 107.92-26.36 107.59-24.06ZM106.81-17.85L117.99-17.85 118.31-20.15 107.13-20.15 106.81-17.85ZM165.09 0.28L157.46 0.28 161.37-27.55 147.38-27.55 142.74 0.37 136.62 0.37 142.05-31.79 167.16-31.79 163.39-4.88 164.45-4.88 166.06-6.62 165.09 0.28ZM159.53-19.73L157.5-5.38Q157.41-4.46 156.68-3.82 155.94-3.17 155.02-3.17L155.02-3.17 153.23-3.17 154.42-4.97 156.08-16.7 154.93-16.7 152.63 0 148.26 0 150.6-16.7 149.5-16.7 147.61-3.17 144.35-3.17 146.65-19.73 151.02-19.73 151.39-22.54 147.43-22.54 147.84-25.62 160.45-25.62 160.03-22.54 155.76-22.54 155.34-19.73 159.53-19.73ZM140.21-32.61L139.47-27.37 135.61 0.37 129.03 0.37 132.71-25.76 130.36-25.21 131.1-30.45 140.21-32.61Z" transform="translate(0.2800000011920929, 32.709999084472656)"></path></g> <!----> <!----> <!----> <!----> <!----> <!----> <!----></g></g> <g data-gra="path-slogan" fill-rule="" class="tp-slogan" fill="#1c085d" transform="translate(37.92000198364258,41.17000198364258)"><!----> <!----> <g transform="scale(1, 1)"><g transform="scale(1)"><path d="M1.89-4.64L6.02-4.64L6.02-7.86L7.09-7.86L7.09 0L6.02 0L6.02-3.65L1.89-3.65L1.89 0L0.82 0L0.82-7.86L1.89-7.86L1.89-4.64ZM13.92-2.92L13.92-7.86L15.00-7.86L15.00-2.79Q14.87 0.04 11.77 0.13L11.77 0.13Q8.89 0.04 8.77-2.62L8.77-2.62L8.77-7.86L9.84-7.86L9.84-2.92Q9.88-0.77 11.82-0.73L11.82-0.73Q13.92-0.77 13.92-2.92L13.92-2.92ZM17.40-0.95L22.26-0.95L22.26 0L16.07 0L16.07-0.86L20.88-6.96L16.41-6.96L16.41-7.86L22.26-7.86L22.26-6.96L17.40-0.95ZM24.36-4.64L28.49-4.64L28.49-7.86L29.56-7.86L29.56 0L28.49 0L28.49-3.65L24.36-3.65L24.36 0L23.29 0L23.29-7.86L24.36-7.86L24.36-4.64ZM37.43-3.91L37.43-3.91Q37.25-7.00 34.68-7.18L34.68-7.18Q32.05-7.05 31.93-3.91L31.93-3.91Q32.05-0.86 34.68-0.73L34.68-0.73Q37.25-0.90 37.43-3.91ZM38.50-3.91L38.50-3.91Q38.24 0 34.68 0.13L34.68 0.13Q31.07 0 30.81-3.91L30.81-3.91Q31.02-7.99 34.68-8.08L34.68-8.08Q38.24-7.95 38.50-3.91ZM44.95-2.92L44.95-7.86L46.02-7.86L46.02-2.79Q45.89 0.04 42.80 0.13L42.80 0.13Q39.92 0.04 39.79-2.62L39.79-2.62L39.79-7.86L40.86-7.86L40.86-2.92Q40.91-0.77 42.84-0.73L42.84-0.73Q44.95-0.77 44.95-2.92L44.95-2.92ZM50.70-7.86L51.78-7.86L51.78-0.95L55.77-0.95L55.77 0L50.70 0L50.70-7.86ZM62.00 0L61.23-2.28L58.05-2.28L57.23 0L56.16 0L59.13-7.86L60.33-7.86L63.16 0L62.00 0ZM59.64-6.70L58.39-3.22L60.84-3.22L59.68-6.70L59.64-6.70ZM65.40-7.86L69.35-1.50L69.35-7.86L70.38-7.86L70.38 0L69.18 0L65.18-6.36L65.14-6.36L65.14 0L64.11 0L64.11-7.86L65.40-7.86ZM77.90-3.31L75.50-3.31L75.50-4.21L78.93-4.21L78.93 0L78.25 0L77.99-0.99Q77.09 0.09 75.41 0.13L75.41 0.13Q73.82 0.13 72.96-0.69L72.96-0.69Q71.67-1.89 71.71-4.00L71.71-4.00Q72.02-7.91 75.45-8.08L75.45-8.08Q78.38-7.91 78.80-5.50L78.80-5.50L77.77-5.50Q77.34-7.13 75.41-7.18L75.41-7.18Q72.96-7.00 72.83-3.95L72.83-3.95Q72.83-0.69 75.45-0.69L75.45-0.69Q76.40-0.69 77.09-1.20L77.09-1.20Q77.95-1.89 77.90-3.31L77.90-3.31ZM83.92-7.00L81.77-7.00L81.77-4.25L83.88-4.25Q85.51-4.25 85.51-5.67L85.51-5.67Q85.51-6.96 83.92-7.00L83.92-7.00ZM84.26-3.31L81.77-3.31L81.77 0L80.70 0L80.70-7.86L84.26-7.86Q86.50-7.78 86.58-5.67L86.58-5.67Q86.45-3.39 84.26-3.31L84.26-3.31ZM89.07-0.95L93.80-0.95L93.80 0L88 0L88-7.86L93.71-7.86L93.71-6.96L89.07-6.96L89.07-4.51L93.37-4.51L93.37-3.57L89.07-3.57L89.07-0.95ZM95.35-7.86L96.42-7.86L96.42 0L95.35 0L95.35-7.86Z" transform="translate(-0.81640625, 8.078125)"></path></g></g></g></g></g></g><mask id="d28c2cff-193f-478a-b957-319114c33069"><g fill="white"><g><rect fill-opacity="1" stroke-width="2" x="0" y="0" width="147.5" height="70.5316412115184" class="image-rect"></rect> <svg x="0" y="0" width="147.5" height="70.5316412115184" filtersec="colorsb2066375019" class="image-svg-svg primary" style="overflow: visible;"><svg xmlns="http://www.w3.org/2000/svg" viewBox="-0.013117790222167969 0.00208282470703125 200.77313232421875 96.00579071044922"><g><g><path d="M53.72 83.56l.79-1c-1.49-1-2.94-2-4.45-2.92a53.38 53.38 0 0 1-15.33-13.38C27 55.85 26.9 44.49 34.45 34A51 51 0 0 1 49.2 20.67c14-8.81 29.57-13.41 45.72-16.29 12.87-2.29 25.87-3.07 38.86-3.55C99.52-1.69 66.15.75 35.85 19.36a43.65 43.65 0 0 0-13.06 12.19c-6.31 9-7.34 18.54-1.59 28.09 7.51 12.46 19.69 18.72 32.52 23.92z"></path><path d="M200.76 18.57c-1.47-.66-2.92-1.41-4.42-2-29.7-11.2-60.31-13-91.43-8.48-17.58 2.57-34.49 7.38-49.55 17.28-6.75 4.44-12.65 9.78-16.12 17.31-3.86 8.36-3 17.54 2.56 23.74-3.21-18.29 7.1-28.75 20.59-37.38a62.4 62.4 0 0 1 7-3.89c30.65-14.4 63-16.87 96.12-13.4 11.88 1.25 23.49 4.09 35.25 6.82z"></path><path d="M22.11 24.4c-7.18 3.29-13.37 7.77-17.79 14.37-6 8.9-5.74 18.25.6 26.9 4.51 6.17 10.48 10.67 17.14 14.21C46.91 93 73.8 96.19 101.35 96c-14.47-1.71-28.95-3.47-43-7.69-14.9-4.51-29.23-10.2-40.25-21.82C7.39 55.18 7.38 42 17.72 30.33c1.61-1.81 3.95-3.02 4.39-5.93z"></path><path d="M53.72 83.56c-12.83-5.2-25-11.46-32.52-23.92-5.75-9.55-4.72-19.08 1.59-28.09a43.65 43.65 0 0 1 13.06-12.19C66.15.75 99.52-1.69 133.78.83c-13 .48-26 1.26-38.86 3.55-16.15 2.88-31.7 7.48-45.72 16.29A51 51 0 0 0 34.45 34c-7.55 10.54-7.5 21.9.28 32.31a53.38 53.38 0 0 0 15.33 13.32c1.51.92 3 1.94 4.45 2.92z"></path><path d="M200.76 18.57c-11.76-2.73-23.37-5.57-35.29-6.8-33.14-3.47-65.47-1-96.12 13.4a62.4 62.4 0 0 0-7 3.89C48.9 37.69 38.59 48.15 41.8 66.44c-5.53-6.2-6.42-15.38-2.56-23.74 3.47-7.53 9.37-12.87 16.12-17.31 15.06-9.9 32-14.71 49.55-17.28 31.12-4.57 61.73-2.72 91.43 8.48 1.5.57 2.95 1.32 4.42 1.98z"></path><path d="M22.11 24.4c-.44 2.91-2.78 4.12-4.39 5.93C7.38 42 7.39 55.18 18.1 66.49c11 11.62 25.35 17.31 40.27 21.8 14 4.22 28.51 6 43 7.69-27.57.21-54.46-2.98-79.31-16.1-6.66-3.54-12.63-8-17.14-14.21-6.34-8.65-6.57-18-.6-26.9 4.42-6.6 10.61-11.08 17.79-14.37z"></path></g></g></svg></svg> </g></g> <g transform="translate(54.029998779296875,23.57675552368164)"><rect fill="black" fill-opacity="1" x="-3.5" y="-3.5" width="174.44000244140625" height="40.17000198364258"></rect><rect fill="black" fill-opacity="1" x="-3.5" y="-3.5" transform="translate(37.92359572649002,41.17000198364258)" width="102.5999984741211" height="15.210000991821289"></rect></g><g transform="translate(54.029998779296875,23.57675552368164)" fill="black"><g data-gra="path-name" fill-rule="" class="tp-name" transform="translate(0,0)"><g transform="scale(1)"><g><path d="M24.43 0.37L29.58-31.69 42.64-31.69 38.41-1.52Q38.27-0.69 37.63-0.16 36.98 0.37 36.16 0.37L36.16 0.37 31 0.37 33.03-1.93 34.32-11.18 31.46-11.18 29.62 0.37 24.43 0.37ZM13.39-26.73L17.11-26.73 17.71-30.87 16.24-32.61 24.33-32.61 23.46-26.73 27.46-26.73 26.86-22.68 22.91-22.68 22.26-18.22 25.9-18.22 23.6-2.07 10.03-2.07 12.33-18.22 15.92-18.22 16.56-22.68 12.79-22.68 13.39-26.73ZM6.26 0.41L-0.28 0.41 3.73-12.6 10.26-12.6 6.26 0.41ZM10.58-14.35L4-14.35 3.68-22.22 10.21-22.22 10.58-14.35ZM11.91-23.97L5.34-23.97 5.01-31.83 11.55-31.83 11.91-23.97ZM16.15-5.93L18.45-5.93 19.6-14.21 17.3-14.21 16.15-5.93ZM32.84-19.6L32.02-14.67 34.78-14.67 35.47-19.6 32.84-19.6ZM34.18-27.92L33.4-23.09 35.97-23.09 36.66-27.92 34.18-27.92ZM50.88-32.66L60.12-32.66 51.61 0.37 44.25 0.37 52.53-31.05 50.88-32.66ZM75.44-32.66L83.72-32.66 79.03 0.37 72.5 0.37 76.91-30.91 75.44-32.66ZM63.07-31L71.53-31 67.39-1.24 60.44-1.24 64.35-29.21 63.07-31ZM62.51-24.84L60.81-12.24 56.99-12.24 58.7-24.84 62.51-24.84ZM74.84-24.84L73.6-12.24 69.83-12.24 71.16-24.84 74.84-24.84ZM43.24-12.19L46.55-24.84 50.14-24.84 46.92-12.19 43.24-12.19ZM106.31-14.03L104.97-4.74 110.12-5.38 109.43-0.55 96.65 0.46 100.97-30.08 109.94-30.08 110.08-30.96 108.61-32.71 117.85-32.71 117.48-30.08 126.55-30.08 124.29-14.03 106.31-14.03ZM108.05-12.42L115.69-12.42 116.98-10.17 125.03-12.65 124.43-8.23 119.09-6.53 123.1 0.28 115.41 0.28 108.05-12.42ZM92.55 0.37L85.01 0.37 89.33-12.65 96.83-12.65 92.55 0.37ZM97.2-14.4L89.7-14.4 89.1-22.26 96.65-22.26 97.2-14.4ZM98.53-23.97L91.03-23.97 90.44-31.83 97.98-31.83 98.53-23.97ZM107.59-24.06L118.86-24.06 119.19-26.36 107.92-26.36 107.59-24.06ZM106.81-17.85L117.99-17.85 118.31-20.15 107.13-20.15 106.81-17.85ZM165.09 0.28L157.46 0.28 161.37-27.55 147.38-27.55 142.74 0.37 136.62 0.37 142.05-31.79 167.16-31.79 163.39-4.88 164.45-4.88 166.06-6.62 165.09 0.28ZM159.53-19.73L157.5-5.38Q157.41-4.46 156.68-3.82 155.94-3.17 155.02-3.17L155.02-3.17 153.23-3.17 154.42-4.97 156.08-16.7 154.93-16.7 152.63 0 148.26 0 150.6-16.7 149.5-16.7 147.61-3.17 144.35-3.17 146.65-19.73 151.02-19.73 151.39-22.54 147.43-22.54 147.84-25.62 160.45-25.62 160.03-22.54 155.76-22.54 155.34-19.73 159.53-19.73ZM140.21-32.61L139.47-27.37 135.61 0.37 129.03 0.37 132.71-25.76 130.36-25.21 131.1-30.45 140.21-32.61Z" transform="translate(0.2800000011920929, 32.709999084472656)"></path></g>       </g></g> <g data-gra="path-slogan" fill-rule="" class="tp-slogan" transform="translate(37.92000198364258,41.17000198364258)">  <g transform="scale(1, 1)"><g transform="scale(1)"><path d="M1.89-4.64L6.02-4.64L6.02-7.86L7.09-7.86L7.09 0L6.02 0L6.02-3.65L1.89-3.65L1.89 0L0.82 0L0.82-7.86L1.89-7.86L1.89-4.64ZM13.92-2.92L13.92-7.86L15.00-7.86L15.00-2.79Q14.87 0.04 11.77 0.13L11.77 0.13Q8.89 0.04 8.77-2.62L8.77-2.62L8.77-7.86L9.84-7.86L9.84-2.92Q9.88-0.77 11.82-0.73L11.82-0.73Q13.92-0.77 13.92-2.92L13.92-2.92ZM17.40-0.95L22.26-0.95L22.26 0L16.07 0L16.07-0.86L20.88-6.96L16.41-6.96L16.41-7.86L22.26-7.86L22.26-6.96L17.40-0.95ZM24.36-4.64L28.49-4.64L28.49-7.86L29.56-7.86L29.56 0L28.49 0L28.49-3.65L24.36-3.65L24.36 0L23.29 0L23.29-7.86L24.36-7.86L24.36-4.64ZM37.43-3.91L37.43-3.91Q37.25-7.00 34.68-7.18L34.68-7.18Q32.05-7.05 31.93-3.91L31.93-3.91Q32.05-0.86 34.68-0.73L34.68-0.73Q37.25-0.90 37.43-3.91ZM38.50-3.91L38.50-3.91Q38.24 0 34.68 0.13L34.68 0.13Q31.07 0 30.81-3.91L30.81-3.91Q31.02-7.99 34.68-8.08L34.68-8.08Q38.24-7.95 38.50-3.91ZM44.95-2.92L44.95-7.86L46.02-7.86L46.02-2.79Q45.89 0.04 42.80 0.13L42.80 0.13Q39.92 0.04 39.79-2.62L39.79-2.62L39.79-7.86L40.86-7.86L40.86-2.92Q40.91-0.77 42.84-0.73L42.84-0.73Q44.95-0.77 44.95-2.92L44.95-2.92ZM50.70-7.86L51.78-7.86L51.78-0.95L55.77-0.95L55.77 0L50.70 0L50.70-7.86ZM62.00 0L61.23-2.28L58.05-2.28L57.23 0L56.16 0L59.13-7.86L60.33-7.86L63.16 0L62.00 0ZM59.64-6.70L58.39-3.22L60.84-3.22L59.68-6.70L59.64-6.70ZM65.40-7.86L69.35-1.50L69.35-7.86L70.38-7.86L70.38 0L69.18 0L65.18-6.36L65.14-6.36L65.14 0L64.11 0L64.11-7.86L65.40-7.86ZM77.90-3.31L75.50-3.31L75.50-4.21L78.93-4.21L78.93 0L78.25 0L77.99-0.99Q77.09 0.09 75.41 0.13L75.41 0.13Q73.82 0.13 72.96-0.69L72.96-0.69Q71.67-1.89 71.71-4.00L71.71-4.00Q72.02-7.91 75.45-8.08L75.45-8.08Q78.38-7.91 78.80-5.50L78.80-5.50L77.77-5.50Q77.34-7.13 75.41-7.18L75.41-7.18Q72.96-7.00 72.83-3.95L72.83-3.95Q72.83-0.69 75.45-0.69L75.45-0.69Q76.40-0.69 77.09-1.20L77.09-1.20Q77.95-1.89 77.90-3.31L77.90-3.31ZM83.92-7.00L81.77-7.00L81.77-4.25L83.88-4.25Q85.51-4.25 85.51-5.67L85.51-5.67Q85.51-6.96 83.92-7.00L83.92-7.00ZM84.26-3.31L81.77-3.31L81.77 0L80.70 0L80.70-7.86L84.26-7.86Q86.50-7.78 86.58-5.67L86.58-5.67Q86.45-3.39 84.26-3.31L84.26-3.31ZM89.07-0.95L93.80-0.95L93.80 0L88 0L88-7.86L93.71-7.86L93.71-6.96L89.07-6.96L89.07-4.51L93.37-4.51L93.37-3.57L89.07-3.57L89.07-0.95ZM95.35-7.86L96.42-7.86L96.42 0L95.35 0L95.35-7.86Z" transform="translate(-0.81640625, 8.078125)"></path></g></g></g></g></mask><defs v-gra="od"><linearGradient x1="0" y1="1" x2="0" y2="0" id="ee6abfaa-b5ab-40ca-a0f7-5f6adf979506"><stop offset="0%" stop-color="#6e45e2"></stop><stop offset="100%" stop-color="#88d3ce"></stop></linearGradient><filter id="42443b3f1de60f6b6fd3b6a9844b4764" filterUnits="objectBoundingBox"><feColorMatrix type="matrix" values="0 0 0 0 0.99609375  0 0 0 0 0.99609375  0 0 0 0 0.99609375  0 0 0 1 0"></feColorMatrix></filter></defs><defs v-gra="id"><filter id="a02c9cd6-73c3-403c-ac12-952e1fa8b0cc" filterUnits="userSpaceOnUse"><feColorMatrix type="matrix" values="0 0 0 0 0.99609375  0 0 0 0 0.99609375  0 0 0 0 0.99609375  0 0 0 1 0"></feColorMatrix></filter><linearGradient x1="0" y1="1" x2="0" y2="0" id="8ph4UB2UgOK6E_ha7CiXX"><stop offset="0%" stop-color="#6e45e2"></stop><stop offset="100%" stop-color="#88d3ce"></stop></linearGradient><filter id="42443b3f1de60f6b6fd3b6a9844b4764" filterUnits="objectBoundingBox"><feColorMatrix type="matrix" values="0 0 0 0 0.99609375  0 0 0 0 0.99609375  0 0 0 0 0.99609375  0 0 0 1 0"></feColorMatrix></filter></defs><mask v-gra="im" id="36611e87-9fbf-4b63-a5c8-b184f9c9e72d"><g mask="url(#d28c2cff-193f-478a-b957-319114c33069)" filter="url(#a02c9cd6-73c3-403c-ac12-952e1fa8b0cc)"><g><rect fill="#333" fill-opacity="0" stroke-width="2" x="0" y="0" width="147.5" height="70.5316412115184" class="image-rect"></rect> <svg x="0" y="0" width="147.5" height="70.5316412115184" filtersec="colorsb2066375019" class="image-svg-svg primary" style="overflow: visible;"><svg xmlns="http://www.w3.org/2000/svg" viewBox="-0.013117790222167969 0.00208282470703125 200.77313232421875 96.00579071044922"><g><g><path d="M53.72 83.56l.79-1c-1.49-1-2.94-2-4.45-2.92a53.38 53.38 0 0 1-15.33-13.38C27 55.85 26.9 44.49 34.45 34A51 51 0 0 1 49.2 20.67c14-8.81 29.57-13.41 45.72-16.29 12.87-2.29 25.87-3.07 38.86-3.55C99.52-1.69 66.15.75 35.85 19.36a43.65 43.65 0 0 0-13.06 12.19c-6.31 9-7.34 18.54-1.59 28.09 7.51 12.46 19.69 18.72 32.52 23.92z" fill="#fdfdfd"></path><path d="M200.76 18.57c-1.47-.66-2.92-1.41-4.42-2-29.7-11.2-60.31-13-91.43-8.48-17.58 2.57-34.49 7.38-49.55 17.28-6.75 4.44-12.65 9.78-16.12 17.31-3.86 8.36-3 17.54 2.56 23.74-3.21-18.29 7.1-28.75 20.59-37.38a62.4 62.4 0 0 1 7-3.89c30.65-14.4 63-16.87 96.12-13.4 11.88 1.25 23.49 4.09 35.25 6.82z" fill="#fdfdfd"></path><path d="M22.11 24.4c-7.18 3.29-13.37 7.77-17.79 14.37-6 8.9-5.74 18.25.6 26.9 4.51 6.17 10.48 10.67 17.14 14.21C46.91 93 73.8 96.19 101.35 96c-14.47-1.71-28.95-3.47-43-7.69-14.9-4.51-29.23-10.2-40.25-21.82C7.39 55.18 7.38 42 17.72 30.33c1.61-1.81 3.95-3.02 4.39-5.93z" fill="#fdfdfd"></path><path d="M53.72 83.56c-12.83-5.2-25-11.46-32.52-23.92-5.75-9.55-4.72-19.08 1.59-28.09a43.65 43.65 0 0 1 13.06-12.19C66.15.75 99.52-1.69 133.78.83c-13 .48-26 1.26-38.86 3.55-16.15 2.88-31.7 7.48-45.72 16.29A51 51 0 0 0 34.45 34c-7.55 10.54-7.5 21.9.28 32.31a53.38 53.38 0 0 0 15.33 13.32c1.51.92 3 1.94 4.45 2.92z" fill="#2c5da8"></path><path d="M200.76 18.57c-11.76-2.73-23.37-5.57-35.29-6.8-33.14-3.47-65.47-1-96.12 13.4a62.4 62.4 0 0 0-7 3.89C48.9 37.69 38.59 48.15 41.8 66.44c-5.53-6.2-6.42-15.38-2.56-23.74 3.47-7.53 9.37-12.87 16.12-17.31 15.06-9.9 32-14.71 49.55-17.28 31.12-4.57 61.73-2.72 91.43 8.48 1.5.57 2.95 1.32 4.42 1.98z" fill="#2c5da8"></path><path d="M22.11 24.4c-.44 2.91-2.78 4.12-4.39 5.93C7.38 42 7.39 55.18 18.1 66.49c11 11.62 25.35 17.31 40.27 21.8 14 4.22 28.51 6 43 7.69-27.57.21-54.46-2.98-79.31-16.1-6.66-3.54-12.63-8-17.14-14.21-6.34-8.65-6.57-18-.6-26.9 4.42-6.6 10.61-11.08 17.79-14.37z" fill="#2c5da8"></path></g></g></svg></svg> <!----></g></g></mask></svg>